# xmcd
#
# Track frame offsets: 
#        150
#        33202
#        56023
#        78025
#        94941
#        131040
#        154509
#        177053
#        205184
#        230419
#        255991
#        282768
#        324988
#
# Disc length: 4580 seconds
#
# Revision: 1
# Processed by: cddbd v1.5.2PL0 Copyright (c) Steve Scherf et al.
# Submitted via: ExactAudioCopy v1.3
#
DISCID=9c11e20d
DTITLE=Mike Zito - Live From The Top
DYEAR=2010
DGENRE=Texas Blues, Blues Rock, Louisiana Blues
TTITLE0=Natural Born Lover
TTITLE1=Big Mouth
TTITLE2=One Step At A Time
TTITLE3=Shoes Blues [with Teresa James]
TTITLE4=19 Years Old [with Nick Moss and Curtis Salgado]
TTITLE5=Pearl River
TTITLE6=Dead Of Night
TTITLE7=C'mon Baby
TTITLE8=Sugar Sweet [with Ana Popovic]
TTITLE9=Superman
TTITLE10=All Last Night
TTITLE11=Hey Joe
TTITLE12=Ice Cream Man
EXTD=
EXTT0=
EXTT1=
EXTT2=
EXTT3=
EXTT4=
EXTT5=
EXTT6=
EXTT7=
EXTT8=
EXTT9=
EXTT10=
EXTT11=
EXTT12=
PLAYORDER=
